<svg xmlns="http://www.w3.org/2000/svg" viewBox="0 0 51 32">
  <title>favicon</title>
  <desc>Generated by logo-generator v1.0.0</desc>
  <defs>
    <style>
      </style>
    <mask id="mask-left">
      <path d="M 8 0 H 25.5 V 32 H 8 A 8 8 0 0 1 0 24 V 8 A 8 8 0 0 1 8 0 Z" fill="white"/>
      <text fill="black" text-anchor="middle" dominant-baseline="central"
            x="12.5" y="16"
            font-size="27.2" font-family="Geist, sans-serif"
            font-weight="700">R</text>
    </mask>
  </defs>
  <g>
    <path d="M 8 0 H 25.5 V 32 H 8 A 8 8 0 0 1 0 24 V 8 A 8 8 0 0 1 8 0 Z" fill="#ffffff"/>
    <path d="M 25 0 H 43 A 8 8 0 0 1 51 8 V 24 A 8 8 0 0 1 43 32 H 25 V 0 Z" fill="#ffffff"/>
    <path d="M 8 0 H 25.5 V 32 H 8 A 8 8 0 0 1 0 24 V 8 A 8 8 0 0 1 8 0 Z" fill="#3E77DC" mask="url(#mask-left)"/>
    <path d="M 25 0 H 43 A 8 8 0 0 1 51 8 V 24 A 8 8 0 0 1 43 32 H 25 V 0 Z M 26.5 1.5 H 43 A 6.5 6.5 0 0 1 49.5 8 V 24 A 6.5 6.5 0 0 1 43 30.5 H 26.5 V 1.5 Z" fill-rule="evenodd" fill="#3E77DC"/>
    <text fill="#3E77DC" text-anchor="middle" dominant-baseline="central"
          x="38" y="16"
          font-size="27.2" font-family="Geist, sans-serif"
          font-weight="700">K</text>
  </g>
</svg>