<svg width="100" height="100" viewBox="0 0 100 100" xmlns="http://www.w3.org/2000/svg">
  <circle cx="50" cy="50" r="50" fill="white"/>
  <g transform="translate(50,50) scale(0.592) translate(-1177,-617.5)">
    <g transform="translate(0,0)">
      <path d="M1156.92 610.823C1151.91 610.823 1147.83 613.632 1147.83 619.91 1147.83 626.055 1151.87 628.997 1156.92 628.997 1161.92 628.997 1165.96 626.055 1165.96 619.953 1166 613.632 1161.96 610.823 1156.92 610.823ZM1156.92 624.651C1154.68 624.651 1153.01 622.939 1153.01 619.91 1153.01 616.617 1154.68 615.169 1156.92 615.169 1159.16 615.169 1160.82 616.617 1160.82 619.91 1160.87 622.939 1159.16 624.651 1156.92 624.651ZM1189.62 610.998C1189.62 611.086 1189.71 611.174 1189.8 611.174L1193.62 611.174C1193.92 611.174 1194.14 611.437 1194.14 611.701L1194.14 614.993C1194.14 615.081 1194.05 615.169 1193.97 615.169L1189.75 615.169C1189.66 615.169 1189.58 615.256 1189.58 615.344L1189.58 621.753C1189.58 624.212 1190.5 624.958 1192.08 624.958 1192.83 624.958 1193.97 624.519 1194.1 624.519 1194.19 624.519 1194.27 624.607 1194.27 624.695L1194.27 627.855C1194.27 628.075 1194.14 628.25 1194.01 628.338 1193.31 628.733 1192.17 628.953 1190.41 628.953 1187.43 628.953 1184.62 627.46 1184.62 622.587L1184.62 611.437C1184.62 610.471 1185.01 609.506 1185.63 608.847 1186.42 607.969 1189.05 606.257 1189.4 606.257 1189.53 606.257 1189.62 606.301 1189.62 606.433L1189.62 610.998ZM1128.95 611.744C1128.95 611.437 1129.22 611.174 1129.52 611.174L1136.15 611.174C1142.65 611.174 1146.03 615.081 1146.03 620.129 1146.03 625.177 1142.25 628.689 1136.06 628.689L1134.13 628.689C1134.05 628.689 1133.96 628.777 1133.96 628.865L1133.96 637.03C1133.96 637.162 1133.91 637.206 1133.74 637.206 1133.39 637.206 1130.8 635.537 1129.96 634.616 1129.35 633.957 1128.95 632.991 1128.95 632.026L1128.95 611.744ZM1141.07 619.866C1141.07 617.715 1139.66 615.695 1136.02 615.695L1134.09 615.695C1134 615.695 1133.91 615.783 1133.91 615.871L1133.91 623.948C1133.91 624.036 1134 624.124 1134.09 624.124L1136.15 624.124C1140.5 624.124 1141.07 621.095 1141.07 619.866ZM1182.07 623.246C1182.07 626.933 1179.44 628.953 1174.26 628.953 1171.32 628.953 1168.2 627.899 1168.15 627.899 1167.93 627.811 1167.76 627.592 1167.76 627.372L1167.76 623.948C1167.76 623.817 1167.85 623.729 1167.98 623.729 1167.98 623.729 1168.02 623.729 1168.07 623.729 1169.16 624.08 1172.76 624.958 1174.65 624.958 1175.79 624.958 1176.36 624.782 1176.76 624.431 1177.02 624.168 1177.15 623.904 1177.15 623.553 1177.15 622.412 1175.75 622.104 1174.39 621.797 1174.21 621.753 1174.3 621.797 1173.82 621.666 1170.83 620.963 1167.67 620.217 1167.67 616.398 1167.67 614.686 1168.37 613.281 1169.73 612.271 1171.05 611.305 1172.98 610.779 1175.31 610.779 1177.37 610.779 1179.83 611.481 1180.67 611.744 1180.93 611.832 1181.06 612.052 1181.06 612.271L1181.06 615.695C1181.06 615.871 1180.89 615.915 1180.75 615.871 1178.38 614.993 1176.23 614.686 1174.65 614.686 1173.42 614.686 1172.63 615.212 1172.63 616.047 1172.63 617.012 1173.82 617.276 1175.27 617.583 1175.44 617.627 1176.23 617.802 1176.45 617.846 1177.68 618.11 1178.91 618.373 1179.96 619.076 1181.37 620.085 1182.07 621.402 1182.07 623.246ZM1208.85 628.602C1208.8 628.602 1208.76 628.558 1208.76 628.514L1208.76 618.11C1208.76 615.783 1207.97 614.817 1206.13 614.817 1205.47 614.817 1204.68 615.081 1203.89 615.52 1203.1 615.959 1202.48 616.354 1202.26 616.485 1202.22 616.529 1202.13 616.617 1202.13 616.705L1202.13 628.558C1202.13 628.602 1202.09 628.645 1202.04 628.645L1197.39 628.645C1197.35 628.645 1197.3 628.602 1197.3 628.558L1197.3 611.788C1197.3 611.525 1197.52 611.305 1197.79 611.305L1202.04 611.305C1202.09 611.305 1202.13 611.349 1202.13 611.393L1202.13 612.71C1202.13 612.798 1202.18 612.842 1202.26 612.842 1202.31 612.842 1202.35 612.842 1202.35 612.798L1202.48 612.71C1203.01 612.315 1203.8 611.876 1204.33 611.657 1205.51 611.218 1206.74 610.954 1207.75 610.954 1211.53 610.954 1213.55 613.149 1213.55 617.276L1213.55 628.558C1213.55 628.602 1213.5 628.645 1213.46 628.645L1208.85 628.645ZM1217.41 628.602C1217.36 628.602 1217.32 628.558 1217.32 628.514L1217.32 602.833C1217.32 602.745 1217.32 602.701 1217.45 602.701 1217.76 602.701 1220.35 604.326 1221.18 605.247 1221.8 605.95 1222.15 606.872 1222.15 607.794L1222.15 628.47C1222.15 628.514 1222.11 628.558 1222.06 628.558L1217.41 628.558ZM1156.92 583.957C1156.83 583.957 1156.74 584.001 1156.65 584.044 1155.86 584.615 1155.16 585.318 1154.59 586.064 1154.41 586.283 1154.41 586.503 1154.59 586.722 1155.16 587.469 1155.82 588.127 1156.52 588.654 1156.65 588.742 1156.78 588.829 1156.92 588.829 1157.05 588.829 1157.18 588.785 1157.31 588.654 1158.01 588.083 1158.67 587.425 1159.24 586.722 1159.42 586.503 1159.42 586.239 1159.24 586.064 1158.67 585.318 1157.97 584.615 1157.22 584.044 1157.09 584.001 1157 583.957 1156.92 583.957ZM1156.92 590.278C1156.52 590.278 1156.13 590.278 1155.73 590.322 1155.6 590.322 1155.47 590.366 1155.34 590.497 1155.2 590.629 1155.12 590.893 1155.12 591.024 1155.12 591.814 1155.2 596.073 1155.2 598.75 1155.2 600.067 1155.25 600.989 1155.25 601.033 1155.25 601.209 1155.38 601.648 1155.82 601.648L1157.93 601.648C1158.23 601.648 1158.45 601.428 1158.5 601.077 1158.5 601.077 1158.5 601.077 1158.5 601.033 1158.5 600.989 1158.54 597.346 1158.63 591.156L1158.63 591.024C1158.63 590.893 1158.58 590.673 1158.41 590.497 1158.32 590.41 1158.19 590.322 1158.01 590.322 1157.71 590.278 1157.31 590.278 1156.92 590.278ZM1162.27 590.849C1161.79 590.849 1161.39 591.112 1161.17 591.595 1160.56 592.956 1160.12 594.185 1159.68 595.721 1159.64 595.897 1159.64 596.029 1159.73 596.16 1159.77 596.248 1159.9 596.336 1160.12 596.336L1161.75 596.336C1162.14 596.336 1162.27 596.16 1162.32 595.985 1162.58 595.063 1162.8 594.536 1163.11 593.79 1163.11 593.79 1163.15 593.746 1163.24 593.746 1163.28 593.746 1163.33 593.746 1163.37 593.746L1164.2 594.009C1164.29 594.053 1164.38 594.141 1164.38 594.185 1164.42 594.317 1164.47 594.492 1164.42 594.624 1164.42 594.668 1162.75 599.321 1162.23 600.901 1162.14 601.121 1162.18 601.34 1162.27 601.472 1162.36 601.604 1162.54 601.648 1162.75 601.648L1164.77 601.648C1165.13 601.648 1165.34 601.516 1165.43 601.253 1165.52 601.033 1165.61 600.77 1165.74 600.419L1165.78 600.287C1166.4 598.575 1167.32 595.985 1167.5 595.282 1167.85 594.053 1167.93 592.692 1166.09 591.99 1165.52 591.771 1164.95 591.595 1164.47 591.419 1163.81 591.244 1163.19 591.068 1162.67 590.937L1162.58 590.937C1162.49 590.849 1162.36 590.849 1162.27 590.849ZM1151.6 590.849C1151.47 590.849 1151.39 590.849 1151.25 590.893L1151.17 590.893C1150.64 591.024 1150.02 591.156 1149.37 591.375 1148.88 591.507 1148.31 591.727 1147.74 591.946 1145.9 592.605 1146.03 593.966 1146.34 595.239 1146.51 595.941 1147.39 598.355 1148.14 600.375 1148.27 600.726 1148.36 601.033 1148.44 601.209 1148.53 601.472 1148.75 601.604 1149.1 601.604L1151.12 601.604C1151.39 601.604 1151.52 601.516 1151.6 601.428 1151.69 601.297 1151.74 601.121 1151.65 600.858 1151.17 599.321 1149.45 594.624 1149.45 594.58 1149.41 594.448 1149.41 594.273 1149.5 594.141 1149.54 594.097 1149.59 594.009 1149.67 593.966L1150.51 593.702C1150.55 593.702 1150.59 593.702 1150.59 593.702 1150.68 593.702 1150.73 593.746 1150.73 593.746 1151.08 594.536 1151.25 595.063 1151.52 595.941 1151.56 596.117 1151.69 596.292 1152.09 596.292L1153.71 596.292C1153.89 596.292 1154.02 596.248 1154.11 596.117 1154.19 596.029 1154.19 595.853 1154.15 595.678 1153.71 594.141 1153.27 592.912 1152.66 591.551 1152.57 591.375 1152.26 590.849 1151.6 590.849ZM1164.42 603.14 1149.5 603.14C1148.97 603.14 1148.53 603.579 1148.53 604.106L1148.53 605.994C1148.53 606.564 1148.8 606.872 1149.32 606.872L1164.64 606.872C1165.17 606.872 1165.43 606.608 1165.43 605.994L1165.43 604.106C1165.39 603.579 1164.91 603.14 1164.42 603.14ZM1236.29 617.671C1236.29 607.179 1216.57 589.049 1195.59 577.46 1171.4 564.114 1143.88 556.257 1134.79 561.261 1124.43 566.968 1118.77 595.458 1118.77 617.671 1118.77 640.059 1124.12 668.198 1134.79 674.081 1144.45 679.392 1170.83 671.534 1195.64 657.882 1216.93 646.161 1236.29 628.689 1236.29 617.671ZM1142.03 554.676C1157.31 554.676 1181.81 564.334 1198.05 573.289 1207.36 578.425 1217.94 585.932 1226.1 593.527 1233.96 600.814 1241.33 609.945 1241.38 617.671 1241.38 624.958 1235.45 633.518 1225.88 642.298 1217.8 649.717 1207.27 657.004 1198.05 662.096 1182.33 670.744 1158.36 680.885 1142.56 680.885 1138.26 680.885 1134.75 680.138 1132.07 678.69 1125.09 674.827 1120.61 664.467 1117.93 654.282 1115.08 643.351 1113.63 630.226 1113.63 617.715 1113.63 605.467 1115.21 592.297 1117.98 581.586 1121.31 568.548 1126.19 559.944 1132.07 556.696 1134.57 555.335 1137.91 554.676 1142.03 554.676" fill="#F56900" fill-rule="nonzero" fill-opacity="1"/>
    </g>
  </g>
</svg>
